{
	"asset":{
		"generator":"Khronos glTF Blender I/O v4.2.70",
		"version":"2.0"
	},
	"extensionsUsed":[
		"KHR_materials_clearcoat"
	],
	"scene":0,
	"scenes":[
		{
			"name":"Scene",
			"nodes":[
				0,
				1,
				2,
				3
			]
		}
	],
	"nodes":[
		{
			"mesh":0,
			"name":"Cube",
			"rotation":[
				-0.7044259309768677,
				0,
				0,
				0.7097775340080261
			],
			"scale":[
				1,
				0.04220455884933472,
				1
			],
			"translation":[
				0.03389345109462738,
				0.2813820540904999,
				-0.004633352160453796
			]
		},
		{
			"mesh":1,
			"name":"Cube.001",
			"rotation":[
				0,
				0.7044259309768677,
				0.7097775340080261,
				1.4578762375094811e-07
			],
			"scale":[
				1,
				0.04220455884933472,
				1
			],
			"translation":[
				0.23450525104999542,
				-0.3384382724761963,
				-0.009324446320533752
			]
		},
		{
			"mesh":2,
			"name":"Plane",
			"rotation":[
				0.028859738260507584,
				-0.7038522958755493,
				-0.7091817259788513,
				0.028641192242503166
			],
			"scale":[
				0.6321912407875061,
				0.6321912407875061,
				0.4637705683708191
			],
			"translation":[
				0.03389345109462738,
				0.06444288790225983,
				0.04127587378025055
			]
		},
		{
			"mesh":3,
			"name":"Cylinder",
			"rotation":[
				0,
				0.7097775936126709,
				-0.7044258713722229,
				0
			],
			"scale":[
				-0.26696527004241943,
				-0.011468046344816685,
				-0.2669652998447418
			],
			"translation":[
				0.04103368520736694,
				0.10594455897808075,
				-0.040043726563453674
			]
		}
	],
	"materials":[
		{
			"doubleSided":true,
			"extensions":{
				"KHR_materials_clearcoat":{
					"clearcoatRoughnessFactor":0.3871428668498993
				}
			},
			"name":"Materiale",
			"pbrMetallicRoughness":{
				"baseColorFactor":[
					0.3485085070133209,
					0,
					0.00829839613288641,
					1
				],
				"metallicFactor":0,
				"roughnessFactor":0.9047619104385376
			}
		},
		{
			"doubleSided":true,
			"name":"Material.001",
			"pbrMetallicRoughness":{
				"baseColorFactor":[
					0.800000011920929,
					0.800000011920929,
					0.800000011920929,
					1
				],
				"metallicFactor":0.6299212574958801,
				"roughnessFactor":0.23228344321250916
			}
		},
		{
			"doubleSided":true,
			"name":"Material.003",
			"pbrMetallicRoughness":{
				"baseColorFactor":[
					0.8006458282470703,
					0.5919437408447266,
					0.30846813321113586,
					1
				],
				"metallicFactor":0
			}
		}
	],
	"meshes":[
		{
			"name":"Cube.002",
			"primitives":[
				{
					"attributes":{
						"POSITION":0,
						"NORMAL":1,
						"TEXCOORD_0":2
					},
					"indices":3,
					"material":0
				}
			]
		},
		{
			"name":"Cube.004",
			"primitives":[
				{
					"attributes":{
						"POSITION":4,
						"NORMAL":5,
						"TEXCOORD_0":6
					},
					"indices":7,
					"material":1
				}
			]
		},
		{
			"name":"Plane",
			"primitives":[
				{
					"attributes":{
						"POSITION":8,
						"NORMAL":9,
						"TEXCOORD_0":10
					},
					"indices":11,
					"material":2
				}
			]
		},
		{
			"name":"Cylinder",
			"primitives":[
				{
					"attributes":{
						"POSITION":12,
						"NORMAL":13,
						"TEXCOORD_0":14
					},
					"indices":15,
					"material":1
				}
			]
		}
	],
	"accessors":[
		{
			"bufferView":0,
			"componentType":5126,
			"count":456,
			"max":[
				1,
				1.000000238418579,
				1
			],
			"min":[
				-1,
				-1,
				-1
			],
			"type":"VEC3"
		},
		{
			"bufferView":1,
			"componentType":5126,
			"count":456,
			"type":"VEC3"
		},
		{
			"bufferView":2,
			"componentType":5126,
			"count":456,
			"type":"VEC2"
		},
		{
			"bufferView":3,
			"componentType":5123,
			"count":2112,
			"type":"SCALAR"
		},
		{
			"bufferView":4,
			"componentType":5126,
			"count":134,
			"max":[
				0.5614626407623291,
				1,
				1.6335101127624512
			],
			"min":[
				-0.3274262547492981,
				-1,
				1.0928236246109009
			],
			"type":"VEC3"
		},
		{
			"bufferView":5,
			"componentType":5126,
			"count":134,
			"type":"VEC3"
		},
		{
			"bufferView":6,
			"componentType":5126,
			"count":134,
			"type":"VEC2"
		},
		{
			"bufferView":7,
			"componentType":5123,
			"count":564,
			"type":"SCALAR"
		},
		{
			"bufferView":8,
			"componentType":5126,
			"count":70,
			"max":[
				1,
				0.09468990564346313,
				1
			],
			"min":[
				-1,
				0,
				-1
			],
			"type":"VEC3"
		},
		{
			"bufferView":9,
			"componentType":5126,
			"count":70,
			"type":"VEC3"
		},
		{
			"bufferView":10,
			"componentType":5126,
			"count":70,
			"type":"VEC2"
		},
		{
			"bufferView":11,
			"componentType":5123,
			"count":324,
			"type":"SCALAR"
		},
		{
			"bufferView":12,
			"componentType":5126,
			"count":192,
			"max":[
				1,
				1,
				1
			],
			"min":[
				-1,
				-1,
				-1
			],
			"type":"VEC3"
		},
		{
			"bufferView":13,
			"componentType":5126,
			"count":192,
			"type":"VEC3"
		},
		{
			"bufferView":14,
			"componentType":5126,
			"count":192,
			"type":"VEC2"
		},
		{
			"bufferView":15,
			"componentType":5123,
			"count":372,
			"type":"SCALAR"
		}
	],
	"bufferViews":[
		{
			"buffer":0,
			"byteLength":5472,
			"byteOffset":0,
			"target":34962
		},
		{
			"buffer":0,
			"byteLength":5472,
			"byteOffset":5472,
			"target":34962
		},
		{
			"buffer":0,
			"byteLength":3648,
			"byteOffset":10944,
			"target":34962
		},
		{
			"buffer":0,
			"byteLength":4224,
			"byteOffset":14592,
			"target":34963
		},
		{
			"buffer":0,
			"byteLength":1608,
			"byteOffset":18816,
			"target":34962
		},
		{
			"buffer":0,
			"byteLength":1608,
			"byteOffset":20424,
			"target":34962
		},
		{
			"buffer":0,
			"byteLength":1072,
			"byteOffset":22032,
			"target":34962
		},
		{
			"buffer":0,
			"byteLength":1128,
			"byteOffset":23104,
			"target":34963
		},
		{
			"buffer":0,
			"byteLength":840,
			"byteOffset":24232,
			"target":34962
		},
		{
			"buffer":0,
			"byteLength":840,
			"byteOffset":25072,
			"target":34962
		},
		{
			"buffer":0,
			"byteLength":560,
			"byteOffset":25912,
			"target":34962
		},
		{
			"buffer":0,
			"byteLength":648,
			"byteOffset":26472,
			"target":34963
		},
		{
			"buffer":0,
			"byteLength":2304,
			"byteOffset":27120,
			"target":34962
		},
		{
			"buffer":0,
			"byteLength":2304,
			"byteOffset":29424,
			"target":34962
		},
		{
			"buffer":0,
			"byteLength":1536,
			"byteOffset":31728,
			"target":34962
		},
		{
			"buffer":0,
			"byteLength":744,
			"byteOffset":33264,
			"target":34963
		}
	],
	"buffers":[
		{
			"byteLength":34008,
			"uri":"floppy.bin"
		}
	]
}
