{
	"asset":{
		"generator":"Khronos glTF Blender I/O v4.2.69",
		"version":"2.0"
	},
	"extensionsUsed":[
		"KHR_materials_clearcoat",
		"KHR_materials_emissive_strength"
	],
	"scene":0,
	"scenes":[
		{
			"name":"Scene",
			"nodes":[
				0,
				1,
				2,
				3,
				4,
				5,
				6,
				7,
				8,
				9
			]
		}
	],
	"nodes":[
		{
			"mesh":0,
			"name":"Sfera.003",
			"scale":[
				0.9574739336967468,
				0.9574739336967468,
				0.9574739336967468
			],
			"translation":[
				-0.00737878680229187,
				0.2738904058933258,
				0.012416643090546131
			]
		},
		{
			"mesh":1,
			"name":"Cilindro",
			"scale":[
				0.9373155832290649,
				0.1683521419763565,
				0.9373155832290649
			],
			"translation":[
				0.005438655614852905,
				-0.9558855295181274,
				0.008724919520318508
			]
		},
		{
			"mesh":2,
			"name":"Cilindro.002",
			"rotation":[
				0.46106529235839844,
				0.7765448689460754,
				-0.4179259240627289,
				0.09866496920585632
			],
			"scale":[
				0.04983413591980934,
				0.04983413219451904,
				0.049834124743938446
			],
			"translation":[
				0.773261547088623,
				0.4210438132286072,
				-0.5137091875076294
			]
		},
		{
			"mesh":3,
			"name":"Cilindro.003",
			"rotation":[
				0.6166207790374756,
				0.5845295190811157,
				-0.08379783481359482,
				0.5206553936004639
			],
			"scale":[
				0.049834124743938446,
				0.049834124743938446,
				0.049834124743938446
			],
			"translation":[
				0.773261547088623,
				0.4210438132286072,
				0.497982382774353
			]
		},
		{
			"mesh":4,
			"name":"Cubo",
			"rotation":[
				0,
				0,
				-0.2800055742263794,
				0.959998369216919
			],
			"scale":[
				0.14994682371616364,
				0.012766159139573574,
				0.15738356113433838
			],
			"translation":[
				1.081233024597168,
				0.05692709609866142,
				-0.0174581129103899
			]
		},
		{
			"mesh":5,
			"name":"Sfera.001",
			"rotation":[
				-0.00857552420347929,
				0.2647513747215271,
				0.05597468838095665,
				0.9626526832580566
			],
			"scale":[
				0.17853623628616333,
				0.3050796389579773,
				0.30507969856262207
			],
			"translation":[
				0.7499900460243225,
				0.38219571113586426,
				-0.4809495210647583
			]
		},
		{
			"mesh":6,
			"name":"Sfera.002",
			"rotation":[
				-0.03510123863816261,
				-0.24522095918655396,
				0.04443655535578728,
				0.9678120613098145
			],
			"scale":[
				0.17853623628616333,
				0.3050796389579773,
				0.30507969856262207
			],
			"translation":[
				0.7499900460243225,
				0.38219571113586426,
				0.4572746157646179
			]
		},
		{
			"mesh":7,
			"name":"Sfera",
			"rotation":[
				0,
				0,
				-0.7071068286895752,
				0.7071068286895752
			],
			"scale":[
				-0.12830814719200134,
				-0.12830814719200134,
				-0.12830814719200134
			],
			"translation":[
				0.007270336151123047,
				-1.5030876398086548,
				0.012710768729448318
			]
		},
		{
			"mesh":8,
			"name":"Sfera.004",
			"scale":[
				0.9574739336967468,
				0.9574739336967468,
				0.9574739336967468
			],
			"translation":[
				0.04869353771209717,
				0.4799060821533203,
				-0.8611918687820435
			]
		},
		{
			"mesh":9,
			"name":"Sfera.005",
			"rotation":[
				0.01894560642540455,
				-0.0006399487610906363,
				-0.9992504119873047,
				0.03375289589166641
			],
			"scale":[
				-0.957473874092102,
				-0.9574740529060364,
				-0.9574739336967468
			],
			"translation":[
				0.04208195209503174,
				0.3688196539878845,
				0.859634280204773
			]
		}
	],
	"materials":[
		{
			"doubleSided":true,
			"extensions":{
				"KHR_materials_clearcoat":{
					"clearcoatRoughnessFactor":0.3871428668498993
				}
			},
			"name":"Materiale",
			"pbrMetallicRoughness":{
				"baseColorFactor":[
					0,
					0,
					0,
					1
				],
				"metallicFactor":0,
				"roughnessFactor":0.9047619104385376
			}
		},
		{
			"doubleSided":true,
			"name":"Materiale.002",
			"pbrMetallicRoughness":{
				"baseColorFactor":[
					1,
					0.2126409113407135,
					0.19317539036273956,
					1
				],
				"metallicFactor":0,
				"roughnessFactor":0.7992125749588013
			}
		},
		{
			"doubleSided":true,
			"emissiveFactor":[
				0.8895620107650757,
				1,
				0
			],
			"extensions":{
				"KHR_materials_emissive_strength":{
					"emissiveStrength":9.799999237060547
				}
			},
			"name":"Materiale.001",
			"pbrMetallicRoughness":{
				"baseColorFactor":[
					0.891258955001831,
					0.9180550575256348,
					0,
					1
				],
				"metallicFactor":0,
				"roughnessFactor":0
			}
		},
		{
			"doubleSided":true,
			"name":"Materiale.003",
			"pbrMetallicRoughness":{
				"baseColorFactor":[
					0.800000011920929,
					0.800000011920929,
					0.800000011920929,
					1
				],
				"metallicFactor":0,
				"roughnessFactor":0.8464567065238953
			}
		}
	],
	"meshes":[
		{
			"name":"Sfera.010",
			"primitives":[
				{
					"attributes":{
						"POSITION":0,
						"NORMAL":1,
						"TEXCOORD_0":2
					},
					"indices":3,
					"material":0
				}
			]
		},
		{
			"name":"Cilindro",
			"primitives":[
				{
					"attributes":{
						"POSITION":4,
						"NORMAL":5,
						"TEXCOORD_0":6
					},
					"indices":7,
					"material":1
				}
			]
		},
		{
			"name":"Cilindro.002",
			"primitives":[
				{
					"attributes":{
						"POSITION":8,
						"NORMAL":9,
						"TEXCOORD_0":10
					},
					"indices":11,
					"material":0
				}
			]
		},
		{
			"name":"Cilindro.004",
			"primitives":[
				{
					"attributes":{
						"POSITION":12,
						"NORMAL":13,
						"TEXCOORD_0":14
					},
					"indices":11,
					"material":0
				}
			]
		},
		{
			"name":"Cubo",
			"primitives":[
				{
					"attributes":{
						"POSITION":15,
						"NORMAL":16,
						"TEXCOORD_0":17
					},
					"indices":18,
					"material":1
				}
			]
		},
		{
			"name":"Sfera.005",
			"primitives":[
				{
					"attributes":{
						"POSITION":19,
						"NORMAL":20,
						"TEXCOORD_0":21
					},
					"indices":22,
					"material":2
				}
			]
		},
		{
			"name":"Sfera.009",
			"primitives":[
				{
					"attributes":{
						"POSITION":23,
						"NORMAL":24,
						"TEXCOORD_0":25
					},
					"indices":22,
					"material":2
				}
			]
		},
		{
			"name":"Sfera",
			"primitives":[
				{
					"attributes":{
						"POSITION":26,
						"NORMAL":27,
						"TEXCOORD_0":28
					},
					"indices":29,
					"material":3
				}
			]
		},
		{
			"name":"Sfera.001",
			"primitives":[
				{
					"attributes":{
						"POSITION":30,
						"NORMAL":31,
						"TEXCOORD_0":32
					},
					"indices":33,
					"material":1
				}
			]
		},
		{
			"name":"Sfera.002",
			"primitives":[
				{
					"attributes":{
						"POSITION":34,
						"NORMAL":35,
						"TEXCOORD_0":36
					},
					"indices":37,
					"material":1
				}
			]
		}
	],
	"accessors":[
		{
			"bufferView":0,
			"componentType":5126,
			"count":8545,
			"max":[
				1.0492603778839111,
				1.6509277820587158,
				1.0700509548187256
			],
			"min":[
				-1.0492857694625854,
				-1.6768107414245605,
				-1.0679912567138672
			],
			"type":"VEC3"
		},
		{
			"bufferView":1,
			"componentType":5126,
			"count":8545,
			"type":"VEC3"
		},
		{
			"bufferView":2,
			"componentType":5126,
			"count":8545,
			"type":"VEC2"
		},
		{
			"bufferView":3,
			"componentType":5123,
			"count":49920,
			"type":"SCALAR"
		},
		{
			"bufferView":4,
			"componentType":5126,
			"count":1162,
			"max":[
				1.021823763847351,
				0.9931519031524658,
				1.021823763847351
			],
			"min":[
				-1.021823763847351,
				-1.0242551565170288,
				-1.021823763847351
			],
			"type":"VEC3"
		},
		{
			"bufferView":5,
			"componentType":5126,
			"count":1162,
			"type":"VEC3"
		},
		{
			"bufferView":6,
			"componentType":5126,
			"count":1162,
			"type":"VEC2"
		},
		{
			"bufferView":7,
			"componentType":5123,
			"count":5376,
			"type":"SCALAR"
		},
		{
			"bufferView":8,
			"componentType":5126,
			"count":727,
			"max":[
				3.9813270568847656,
				3.1361920833587646,
				3.9811818599700928
			],
			"min":[
				-3.981142520904541,
				1.7048600912094116,
				-3.98095440864563
			],
			"type":"VEC3"
		},
		{
			"bufferView":9,
			"componentType":5126,
			"count":727,
			"type":"VEC3"
		},
		{
			"bufferView":10,
			"componentType":5126,
			"count":727,
			"type":"VEC2"
		},
		{
			"bufferView":11,
			"componentType":5123,
			"count":4320,
			"type":"SCALAR"
		},
		{
			"bufferView":12,
			"componentType":5126,
			"count":727,
			"max":[
				3.9813270568847656,
				3.1361920833587646,
				3.9811818599700928
			],
			"min":[
				-3.981142520904541,
				1.7048600912094116,
				-3.98095440864563
			],
			"type":"VEC3"
		},
		{
			"bufferView":13,
			"componentType":5126,
			"count":727,
			"type":"VEC3"
		},
		{
			"bufferView":14,
			"componentType":5126,
			"count":727,
			"type":"VEC2"
		},
		{
			"bufferView":15,
			"componentType":5126,
			"count":205,
			"max":[
				0.8735484480857849,
				0.9166667461395264,
				0.9166667461395264
			],
			"min":[
				-0.9659579396247864,
				-0.9166667461395264,
				-0.9166667461395264
			],
			"type":"VEC3"
		},
		{
			"bufferView":16,
			"componentType":5126,
			"count":205,
			"type":"VEC3"
		},
		{
			"bufferView":17,
			"componentType":5126,
			"count":205,
			"type":"VEC2"
		},
		{
			"bufferView":18,
			"componentType":5123,
			"count":960,
			"type":"SCALAR"
		},
		{
			"bufferView":19,
			"componentType":5126,
			"count":559,
			"max":[
				0.9999997019767761,
				1,
				0.9999993443489075
			],
			"min":[
				-0.9999990463256836,
				-1,
				-1
			],
			"type":"VEC3"
		},
		{
			"bufferView":20,
			"componentType":5126,
			"count":559,
			"type":"VEC3"
		},
		{
			"bufferView":21,
			"componentType":5126,
			"count":559,
			"type":"VEC2"
		},
		{
			"bufferView":22,
			"componentType":5123,
			"count":2880,
			"type":"SCALAR"
		},
		{
			"bufferView":23,
			"componentType":5126,
			"count":559,
			"max":[
				0.9999997019767761,
				1,
				0.9999993443489075
			],
			"min":[
				-0.9999990463256836,
				-1,
				-1
			],
			"type":"VEC3"
		},
		{
			"bufferView":24,
			"componentType":5126,
			"count":559,
			"type":"VEC3"
		},
		{
			"bufferView":25,
			"componentType":5126,
			"count":559,
			"type":"VEC2"
		},
		{
			"bufferView":26,
			"componentType":5126,
			"count":1666,
			"max":[
				3.9762778282165527,
				1.0462584495544434,
				1.7683459520339966
			],
			"min":[
				-1.0462576150894165,
				-1.0462584495544434,
				-1.7683459520339966
			],
			"type":"VEC3"
		},
		{
			"bufferView":27,
			"componentType":5126,
			"count":1666,
			"type":"VEC3"
		},
		{
			"bufferView":28,
			"componentType":5126,
			"count":1666,
			"type":"VEC2"
		},
		{
			"bufferView":29,
			"componentType":5123,
			"count":9456,
			"type":"SCALAR"
		},
		{
			"bufferView":30,
			"componentType":5126,
			"count":350,
			"max":[
				0.3063856363296509,
				1.2996584177017212,
				1.6200891733169556
			],
			"min":[
				0.062189433723688126,
				0.533044159412384,
				1.088364601135254
			],
			"type":"VEC3"
		},
		{
			"bufferView":31,
			"componentType":5126,
			"count":350,
			"type":"VEC3"
		},
		{
			"bufferView":32,
			"componentType":5126,
			"count":350,
			"type":"VEC2"
		},
		{
			"bufferView":33,
			"componentType":5123,
			"count":1914,
			"type":"SCALAR"
		},
		{
			"bufferView":34,
			"componentType":5126,
			"count":208,
			"max":[
				0.3063856363296509,
				1.2007609605789185,
				1.6200891733169556
			],
			"min":[
				0.0635514110326767,
				0.5505051016807556,
				1.088364601135254
			],
			"type":"VEC3"
		},
		{
			"bufferView":35,
			"componentType":5126,
			"count":208,
			"type":"VEC3"
		},
		{
			"bufferView":36,
			"componentType":5126,
			"count":208,
			"type":"VEC2"
		},
		{
			"bufferView":37,
			"componentType":5123,
			"count":1074,
			"type":"SCALAR"
		}
	],
	"bufferViews":[
		{
			"buffer":0,
			"byteLength":102540,
			"byteOffset":0,
			"target":34962
		},
		{
			"buffer":0,
			"byteLength":102540,
			"byteOffset":102540,
			"target":34962
		},
		{
			"buffer":0,
			"byteLength":68360,
			"byteOffset":205080,
			"target":34962
		},
		{
			"buffer":0,
			"byteLength":99840,
			"byteOffset":273440,
			"target":34963
		},
		{
			"buffer":0,
			"byteLength":13944,
			"byteOffset":373280,
			"target":34962
		},
		{
			"buffer":0,
			"byteLength":13944,
			"byteOffset":387224,
			"target":34962
		},
		{
			"buffer":0,
			"byteLength":9296,
			"byteOffset":401168,
			"target":34962
		},
		{
			"buffer":0,
			"byteLength":10752,
			"byteOffset":410464,
			"target":34963
		},
		{
			"buffer":0,
			"byteLength":8724,
			"byteOffset":421216,
			"target":34962
		},
		{
			"buffer":0,
			"byteLength":8724,
			"byteOffset":429940,
			"target":34962
		},
		{
			"buffer":0,
			"byteLength":5816,
			"byteOffset":438664,
			"target":34962
		},
		{
			"buffer":0,
			"byteLength":8640,
			"byteOffset":444480,
			"target":34963
		},
		{
			"buffer":0,
			"byteLength":8724,
			"byteOffset":453120,
			"target":34962
		},
		{
			"buffer":0,
			"byteLength":8724,
			"byteOffset":461844,
			"target":34962
		},
		{
			"buffer":0,
			"byteLength":5816,
			"byteOffset":470568,
			"target":34962
		},
		{
			"buffer":0,
			"byteLength":2460,
			"byteOffset":476384,
			"target":34962
		},
		{
			"buffer":0,
			"byteLength":2460,
			"byteOffset":478844,
			"target":34962
		},
		{
			"buffer":0,
			"byteLength":1640,
			"byteOffset":481304,
			"target":34962
		},
		{
			"buffer":0,
			"byteLength":1920,
			"byteOffset":482944,
			"target":34963
		},
		{
			"buffer":0,
			"byteLength":6708,
			"byteOffset":484864,
			"target":34962
		},
		{
			"buffer":0,
			"byteLength":6708,
			"byteOffset":491572,
			"target":34962
		},
		{
			"buffer":0,
			"byteLength":4472,
			"byteOffset":498280,
			"target":34962
		},
		{
			"buffer":0,
			"byteLength":5760,
			"byteOffset":502752,
			"target":34963
		},
		{
			"buffer":0,
			"byteLength":6708,
			"byteOffset":508512,
			"target":34962
		},
		{
			"buffer":0,
			"byteLength":6708,
			"byteOffset":515220,
			"target":34962
		},
		{
			"buffer":0,
			"byteLength":4472,
			"byteOffset":521928,
			"target":34962
		},
		{
			"buffer":0,
			"byteLength":19992,
			"byteOffset":526400,
			"target":34962
		},
		{
			"buffer":0,
			"byteLength":19992,
			"byteOffset":546392,
			"target":34962
		},
		{
			"buffer":0,
			"byteLength":13328,
			"byteOffset":566384,
			"target":34962
		},
		{
			"buffer":0,
			"byteLength":18912,
			"byteOffset":579712,
			"target":34963
		},
		{
			"buffer":0,
			"byteLength":4200,
			"byteOffset":598624,
			"target":34962
		},
		{
			"buffer":0,
			"byteLength":4200,
			"byteOffset":602824,
			"target":34962
		},
		{
			"buffer":0,
			"byteLength":2800,
			"byteOffset":607024,
			"target":34962
		},
		{
			"buffer":0,
			"byteLength":3828,
			"byteOffset":609824,
			"target":34963
		},
		{
			"buffer":0,
			"byteLength":2496,
			"byteOffset":613652,
			"target":34962
		},
		{
			"buffer":0,
			"byteLength":2496,
			"byteOffset":616148,
			"target":34962
		},
		{
			"buffer":0,
			"byteLength":1664,
			"byteOffset":618644,
			"target":34962
		},
		{
			"buffer":0,
			"byteLength":2148,
			"byteOffset":620308,
			"target":34963
		}
	],
	"buffers":[
		{
			"byteLength":622456,
			"uri":"cat2.bin"
		}
	]
}
